<svg width="28" height="28" xmlns="http://www.w3.org/2000/svg" xmlns:xlink="http://www.w3.org/1999/xlink" xml:space="preserve" overflow="hidden"><g transform="translate(-386 -338)"><path d="M20.258 8.15442 21.4979 6.91454C21.6098 6.79866 21.6066 6.61404 21.4907 6.50212 21.3777 6.39295 21.1985 6.39295 21.0855 6.50212L19.8021 7.78546C18.2129 6.57872 16.2863 5.89875 14.2917 5.84062L14.2917 4.08333 17.2083 4.08333 17.2083 3.5 10.7917 3.5 10.7917 4.08333 13.7083 4.08333 13.7083 5.84062C8.38889 5.99579 4.20242 10.4338 4.35759 15.7533 4.51275 21.0727 8.95081 25.2592 14.2702 25.104 19.5897 24.9488 23.7761 20.5108 23.621 15.1914 23.5418 12.4766 22.3206 9.9213 20.258 8.15442ZM14 24.5C9.00643 24.5 4.95833 20.4519 4.95833 15.4583 4.95833 10.4648 9.00643 6.41667 14 6.41667 18.9936 6.41667 23.0417 10.4648 23.0417 15.4583 23.0359 20.4495 18.9912 24.4942 14 24.5Z" transform="matrix(-1 0 0 1 414 338)"/><path d="M14.2917 13.7375 14.2917 7.58333 13.7083 7.58333 13.7083 13.7375C12.9192 13.8986 12.41 14.6689 12.5711 15.458 12.7322 16.2472 13.5025 16.7563 14.2917 16.5952 15.0808 16.4342 15.59 15.6638 15.4289 14.8747 15.312 14.302 14.8644 13.8544 14.2917 13.7375ZM14 16.0417C13.5167 16.0417 13.125 15.6499 13.125 15.1667 13.125 14.6834 13.5167 14.2917 14 14.2917 14.4833 14.2917 14.875 14.6834 14.875 15.1667 14.875 15.6499 14.4833 16.0417 14 16.0417Z" transform="matrix(-1 0 0 1 414 338)"/></g></svg>